<svg class="resume-icon" version="1.0" xmlns="http://www.w3.org/2000/svg" fill="#000000"   viewBox="0 0 512.000000 512.000000"
    preserveAspectRatio="xMidYMid meet"> 
    <g transform="translate(0.000000,512.000000) scale(0.100000,-0.100000)"  stroke="none">
        <path d="M987 4880 c-124 -39 -233 -142 -279 -264 l-23 -61 0 -1995 0 -1995
                    23 -61 c47 -124 155 -225 281 -264 62 -20 98 -20 1571 -20 1482 0 1509 0 1573
                    20 73 23 167 87 210 143 15 21 42 67 60 105 l32 67 3 1520 c2 1049 -1 1528 -8
                    1545 -6 15 -293 308 -638 653 l-627 627 -1060 -1 c-1006 0 -1063 -1 -1118 -19z
                    m2015 -677 l3 -468 32 -60 c40 -77 112 -147 188 -182 l60 -28 463 -3 462 -3 0
                    -1418 0 -1419 -28 -53 c-20 -39 -41 -62 -77 -84 l-48 -30 -1497 0 -1497 0 -48
                    30 c-36 22 -57 45 -77 84 l-28 54 2 1947 3 1947 30 48 c22 36 45 57 84 77 l53
                    28 959 0 958 0 3 -467z m711 -511 c-181 -1 -342 0 -360 3 -18 3 -46 17 -63 32
                    -60 50 -60 49 -60 430 l0 348 405 -405 405 -405 -327 -3z" />
                            <path d="M1975 4073 c-78 -28 -135 -66 -193 -127 -161 -170 -160 -436 0 -611
                    88 -96 200 -145 333 -145 133 0 245 49 333 145 208 227 135 586 -145 718 -61
                    28 -79 32 -173 34 -81 3 -116 -1 -155 -14z m223 -229 c152 -63 183 -268 57
                    -372 -144 -118 -359 -18 -359 168 0 155 160 264 302 204z" />
                            <path d="M1895 3144 c-196 -30 -386 -167 -473 -341 -53 -108 -75 -207 -70
                    -324 3 -88 4 -92 36 -120 45 -41 108 -41 153 -1 31 28 32 33 40 133 12 166 66
                    275 175 350 100 68 126 74 359 74 233 0 259 -6 359 -74 109 -76 164 -185 175
                    -349 6 -101 7 -105 39 -133 46 -41 108 -41 154 0 32 28 33 32 36 118 11 298
                    -172 558 -458 648 -44 14 -99 18 -275 20 -121 2 -233 1 -250 -1z" />
                            <path d="M1343 1730 c-40 -24 -53 -48 -53 -100 0 -34 6 -48 34 -76 l34 -34
                    712 0 c504 0 718 3 733 11 38 20 57 51 57 99 0 25 -7 55 -16 68 -37 53 -18 52
                    -771 52 -674 0 -699 -1 -730 -20z" />
                            <path d="M1334 1142 c-72 -58 -52 -178 33 -201 26 -7 384 -11 1096 -11 1139 0
                    1104 -2 1141 51 9 14 16 43 16 72 0 40 -5 53 -29 78 l-29 29 -1104 0 c-1030 0
                    -1104 -2 -1124 -18z" />
                        </g>
</svg>